<svg width="41" height="46" viewBox="0 0 41 46" fill="none" xmlns="http://www.w3.org/2000/svg">
<path d="M22.3221 22.4143C22.1793 22.4143 21.8817 22.3397 21.496 22.1924C19.1915 21.6427 13.0502 19.9859 12.3555 16.281C11.4648 11.5313 17.5782 12.2981 16.9555 16.281C16.4487 19.5216 19.8121 21.5492 21.496 22.1924C22.1459 22.3474 22.4906 22.4143 22.3221 22.4143Z" fill="#282861"/>
<path d="M22.3221 23.7333C22.1793 23.7333 21.8817 23.808 21.496 23.9553C19.1915 24.5049 13.0502 26.1618 12.3555 29.8666C11.4648 34.6163 17.5782 33.8496 16.9555 29.8666C16.4487 26.626 19.8121 24.5984 21.496 23.9553C22.1459 23.8003 22.4906 23.7333 22.3221 23.7333Z" fill="#282861"/>
<path d="M5.49114 19.3115C12.8782 20.786 16.6722 21.5348 23 23.014C23 23.014 12.7469 24.3956 5.49114 25.2096C-1.7646 26.0236 -1.89587 17.837 5.49114 19.3115Z" fill="#282861"/>
<path fill-rule="evenodd" clip-rule="evenodd" d="M41 0H5V0.433883C5.09736 0.491024 5.19227 0.5577 5.28383 0.634345L30.1681 21.4664C31.123 22.2658 31.123 23.7342 30.1681 24.5336L5.28383 45.3657C5.19228 45.4423 5.09736 45.509 5 45.5661V46H41V0Z" fill="#282861"/>
</svg>
