<?xml version="1.0" standalone="no"?>
<!DOCTYPE svg PUBLIC "-//W3C//DTD SVG 20010904//EN"
 "http://www.w3.org/TR/2001/REC-SVG-20010904/DTD/svg10.dtd">
<svg version="1.0" xmlns="http://www.w3.org/2000/svg"
 width="512.000000pt" height="512.000000pt" viewBox="0 0 512.000000 512.000000"
 preserveAspectRatio="xMidYMid meet">
<metadata>
Created by potrace 1.14, written by Peter Selinger 2001-2017
</metadata>
<g transform="translate(0.000000,512.000000) scale(0.100000,-0.100000)"
fill="#000000" stroke="none">
<path d="M1245 3810 c-204 -32 -392 -128 -547 -278 -214 -207 -324 -488 -305
-780 9 -138 39 -250 102 -378 105 -217 264 -374 478 -474 314 -147 686 -120
974 69 316 209 488 565 452 938 -40 427 -346 781 -764 884 -93 23 -299 33
-390 19z m330 -315 c221 -57 421 -243 491 -459 35 -108 44 -271 20 -379 -58
-261 -273 -475 -533 -533 -112 -25 -272 -16 -382 21 -220 74 -398 267 -458
495 -11 42 -17 104 -17 175 -1 124 20 209 79 325 102 198 297 336 530 374 52
8 207 -3 270 -19z"/>
<path d="M3565 3810 c-129 -20 -283 -80 -401 -155 -80 -51 -226 -195 -280
-277 -61 -92 -119 -219 -146 -319 -22 -83 -22 -92 -25 -921 l-4 -838 151 0
150 0 0 396 0 396 53 -45 c357 -301 862 -322 1242 -52 68 48 195 178 243 248
50 71 119 223 144 312 19 69 22 106 22 260 0 168 -2 186 -27 270 -87 285 -272
504 -532 630 -60 29 -148 63 -195 75 -98 24 -300 34 -395 20z m255 -301 c159
-25 277 -86 396 -205 135 -134 203 -300 204 -495 0 -262 -145 -500 -382 -624
-216 -114 -504 -99 -709 38 -238 158 -358 441 -305 720 72 373 427 626 796
566z"/>
</g>
</svg>
